<?xml version="1.0" encoding="UTF-8" standalone="no"?>
<!-- Created with Inkscape (http://www.inkscape.org/) -->

<svg
   width="232.39359mm"
   height="129.02499mm"
   viewBox="0 0 232.39359 129.02499"
   version="1.1"
   id="svg1"
   xml:space="preserve"
   inkscape:version="1.3 (0e150ed6c4, 2023-07-21)"
   sodipodi:docname="HaloLogoOnlyVector.svg"
   inkscape:export-filename="HaloLogoOnlyVector.png"
   inkscape:export-xdpi="96"
   inkscape:export-ydpi="96"
   xmlns:inkscape="http://www.inkscape.org/namespaces/inkscape"
   xmlns:sodipodi="http://sodipodi.sourceforge.net/DTD/sodipodi-0.dtd"
   xmlns="http://www.w3.org/2000/svg"
   xmlns:svg="http://www.w3.org/2000/svg"><sodipodi:namedview
     id="namedview1"
     pagecolor="#ffffff"
     bordercolor="#000000"
     borderopacity="0.25"
     inkscape:showpageshadow="2"
     inkscape:pageopacity="0.0"
     inkscape:pagecheckerboard="0"
     inkscape:deskcolor="#d1d1d1"
     inkscape:document-units="mm"
     inkscape:zoom="0.7198092"
     inkscape:cx="540.42099"
     inkscape:cy="184.77119"
     inkscape:window-width="1920"
     inkscape:window-height="1012"
     inkscape:window-x="1912"
     inkscape:window-y="-8"
     inkscape:window-maximized="1"
     inkscape:current-layer="layer1" /><defs
     id="defs1" /><g
     inkscape:label="Layer 1"
     inkscape:groupmode="layer"
     id="layer1"
     transform="translate(10.979573,-84.296877)"><path
       style="fill:#000000"
       d="M 100.09915,213.13787 C 81.79972,211.71476 64.598231,202.2517 53.543207,187.52604 c -8.849838,-11.78827 -13.54212,-26.8086 -12.852794,-41.14271 0.101472,-2.11005 0.264247,-4.32756 0.361722,-4.92781 l 0.177228,-1.09135 5.979698,1.86081 5.979698,1.86082 -0.127284,3.09054 c -0.388319,9.4287 2.439614,20.17122 7.512321,28.53719 3.005741,4.9571 8.334234,10.9247 12.7692,14.30075 9.417374,7.16884 20.290638,10.87322 31.915534,10.87322 21.81034,0 41.1332,-13.40372 48.99416,-33.98587 2.2034,-5.7691 3.08525,-10.7719 3.11003,-17.64331 l 0.0187,-5.1948 5.86049,-1.83274 5.86048,-1.83273 0.16078,0.94212 c 0.0884,0.51817 0.23583,2.78759 0.32756,5.04316 0.98993,24.33962 -12.13427,47.42986 -33.60521,59.12377 -10.68968,5.82201 -23.66557,8.58117 -35.88639,7.63077 z"
       id="path1" /><path
       style="fill:#000000"
       d="m 68.09878,103.31867 -6.997248,-1.73054 1.308707,-1.15399 C 75.165695,89.186663 92.424712,83.279948 109.1415,84.440866 c 14.13747,0.981793 26.66224,5.963825 37.37785,14.86794 2.27518,1.890554 2.5619,2.216384 2.11667,2.405384 -0.66807,0.28359 -13.54049,3.39414 -14.04602,3.39414 -0.21193,0 -1.37546,-0.59591 -2.58563,-1.32425 -7.76891,-4.675706 -17.6313,-7.406997 -26.74584,-7.406997 -8.939246,0 -18.866376,2.725076 -26.481369,7.269347 -1.347371,0.80405 -2.726823,1.4486 -3.065449,1.43234 -0.338626,-0.0163 -3.764445,-0.8083 -7.612932,-1.7601 z"
       id="path107" /><path
       style="fill:#000000"
       d="m 148.83359,119.82844 c -0.90123,-1.36279 -1.63861,-2.58768 -1.63861,-2.72197 0,-0.13429 0.32743,-0.63394 0.72761,-1.11034 0.55337,-0.65876 1.80445,-1.33316 5.22466,-2.81639 l 4.49705,-1.95022 1.66224,2.53862 c 0.91423,1.39624 1.62245,2.65796 1.57383,2.80382 -0.0486,0.14586 -1.89608,0.84405 -4.10548,1.55153 l -4.01707,1.28633 -1.09342,1.44821 c -0.60137,0.79652 -1.11564,1.44822 -1.14281,1.44822 -0.0272,0 -0.78677,-1.11501 -1.688,-2.47781 z"
       id="path106" /><path
       style="fill:#000000"
       d="m 58.937709,120.8749 -1.035485,-1.42884 -4.301535,-1.36977 c -2.365844,-0.75337 -4.301535,-1.45272 -4.301535,-1.55411 0,-0.26111 3.059729,-4.96138 3.344121,-5.13714 0.12934,-0.0799 2.317091,0.74712 4.861667,1.83789 4.065806,1.74288 4.710702,2.10369 5.321254,2.97712 l 0.69475,0.99389 -1.67427,2.45529 c -0.920849,1.35041 -1.719093,2.50012 -1.773877,2.5549 -0.05478,0.0548 -0.565574,-0.54337 -1.13509,-1.32923 z"
       id="path105" /><path
       style="fill:#004503;fill-opacity:1"
       d="m 150.08286,124.7827 c 0.60859,-0.85272 1.61551,-2.20525 2.23761,-3.00562 l 1.13108,-1.4552 9.63786,-3.12854 c 11.65742,-3.7841 37.81219,-12.31085 52.13183,-16.99555 3.36257,-1.100076 6.14888,-1.963279 6.1918,-1.918233 0.0429,0.04505 -1.34396,1.715432 -3.08195,3.711973 l -3.15999,3.63007 -3.36254,1.05429 c -1.84939,0.57987 -16.51894,5.16945 -32.59899,10.19909 -16.08005,5.02963 -29.46074,9.21529 -29.73485,9.30146 -0.37089,0.11659 -0.21531,-0.23997 0.60814,-1.39374 z"
       id="path104" /><path
       style="fill:#004503;fill-opacity:1"
       d="m 57.501237,125.08783 c -3.625611,-1.15742 -58.9185886,-18.41293 -61.136831,-19.07922 -1.0618778,-0.31896 -1.5873481,-0.79963 -4.3256736,-3.95686 -1.714331,-1.9766 -3.0718384,-3.638933 -3.0166824,-3.694088 0.05515,-0.05516 4.5020209,1.329571 9.8819233,3.077168 29.4278797,9.55931 51.7380077,16.81814 54.8930977,17.86003 l 3.571875,1.17953 1.719791,2.37694 c 2.414994,3.33779 2.472725,3.42641 2.215085,3.40022 -0.126891,-0.0129 -1.838053,-0.53657 -3.802585,-1.16372 z"
       id="path103" /><path
       style="fill:#000000"
       d="m 153.07035,127.46226 -0.53744,-1.1062 5.63928,-1.76032 c 3.1016,-0.96818 5.76087,-1.76032 5.90948,-1.76032 0.2893,0 0.97736,1.80331 0.76795,2.01272 -0.0688,0.0689 -2.62643,0.9341 -5.68351,1.92276 l -5.55833,1.79757 z"
       id="path102" /><path
       style="fill:#000000"
       d="m 51.018946,126.74706 c -3.055937,-1.02708 -5.604645,-1.90944 -5.663796,-1.96079 -0.05915,-0.0514 0.100045,-0.55373 0.353766,-1.11638 l 0.461311,-1.02301 5.431477,1.7016 c 2.987312,0.93588 5.649906,1.7824 5.916876,1.88116 0.469314,0.17361 0.46873,0.21679 -0.01762,1.30308 -0.27666,0.61794 -0.598136,1.11413 -0.714392,1.10264 -0.116255,-0.0115 -2.711686,-0.86122 -5.767622,-1.8883 z"
       id="path101" /><path
       style="fill:#000000"
       d="m 155.98616,136.06305 c -0.14796,-0.58292 -0.19221,-1.10639 -0.0983,-1.16325 0.0939,-0.0568 2.55195,-0.8457 5.46236,-1.75299 2.91042,-0.90728 5.43323,-1.70346 5.60625,-1.76928 0.18818,-0.0716 0.43435,0.32517 0.6127,0.98748 0.16397,0.60894 0.26053,1.13044 0.21459,1.15889 -0.24843,0.15387 -11.0193,3.59902 -11.25192,3.59902 -0.15214,0 -0.39769,-0.47694 -0.54565,-1.05987 z"
       id="path100" /><path
       style="fill:#000000"
       d="m 48.373113,135.39916 c -3.201459,-1.03536 -5.817158,-1.99381 -5.812667,-2.12988 0.01,-0.3021 0.412957,-1.96744 0.475877,-1.96657 0.02482,3.4e-4 2.664498,0.81218 5.865956,1.8041 l 5.820833,1.80348 -0.09079,0.75301 c -0.213404,1.76997 0.06702,1.7818 -6.259209,-0.26414 z"
       id="path99" /><path
       style="fill:#004503;fill-opacity:1"
       d="m 141.335,137.35121 c 0.4567,-0.63489 1.45601,-1.97899 2.22069,-2.98691 l 1.39034,-1.83257 19.84375,-6.44531 c 10.91406,-3.54492 26.2297,-8.52456 34.03476,-11.06586 7.80505,-2.54131 14.26989,-4.62056 14.36629,-4.62056 0.0964,0 -1.26349,1.65565 -3.022,3.67923 l -3.19729,3.67922 -3.3638,1.06285 c -2.41055,0.76166 -57.64043,17.99079 -62.6022,19.52896 -0.40659,0.12604 -0.34457,-0.062 0.32946,-0.99905 z"
       id="path98" /><path
       style="fill:#004503;fill-opacity:1"
       d="M 63.586654,136.59136 C 60.457956,135.59847 46.229988,131.13779 31.968946,126.67873 17.707905,122.21967 5.4813616,118.39247 4.7988494,118.17384 3.7080371,117.82442 3.1717014,117.33016 0.36532721,114.08816 -1.3905978,112.05967 -2.7372758,110.4 -2.6272905,110.4 c 0.1099853,0 2.16460156,0.64794 4.5658139,1.43987 2.4012123,0.79193 12.9978716,4.25504 23.5481316,7.69579 10.55026,3.44076 23.88526,7.79662 29.633332,9.6797 l 10.451042,3.42378 1.852083,2.55558 c 2.187601,3.01854 2.341269,3.25879 2.063668,3.2265 -0.116372,-0.0135 -2.771428,-0.83698 -5.900126,-1.82986 z"
       id="path97" /><path
       style="fill:#004503;fill-opacity:1"
       d="m 132.88495,149.38895 c 0.60859,-0.85272 1.61574,-2.20525 2.23811,-3.00562 l 1.13158,-1.45521 17.04569,-5.5399 c 9.37513,-3.04695 19.30788,-6.28154 22.07278,-7.18798 20.28026,-6.64863 28.7686,-9.39118 28.83875,-9.31769 0.0447,0.0468 -1.33933,1.71711 -3.07564,3.71173 l -3.15694,3.62656 -3.76246,1.18249 c -2.06935,0.65037 -12.39449,3.88036 -22.94475,7.17774 -10.55026,3.29739 -23.52807,7.35685 -28.83959,9.02104 -5.31151,1.66418 -9.88156,3.09586 -10.15567,3.18152 -0.37126,0.116 -0.21614,-0.23975 0.60814,-1.39468 z"
       id="path96" /><path
       style="fill:#004503;fill-opacity:1"
       d="m 74.699154,149.68929 c -1.964532,-0.62535 -16.430625,-5.14211 -32.146874,-10.03725 -15.71625,-4.89514 -28.942302,-9.01731 -29.391227,-9.16038 -0.560412,-0.1786 -1.825717,-1.41914 -4.0371824,-3.95818 -1.7715249,-2.03394 -3.1390788,-3.69806 -3.0390087,-3.69806 0.1736253,0 40.9461981,13.23239 59.6184581,19.34866 l 8.863542,2.90334 1.719791,2.37355 c 2.407559,3.32277 2.473367,3.42356 2.215085,3.3928 -0.12689,-0.0151 -1.838053,-0.53912 -3.802584,-1.16448 z"
       id="path95" /><path
       style="fill:#004503;fill-opacity:1"
       d="m 105.91999,164.95617 v -7.20515 l 5.86885,-13.81978 c 3.22787,-7.60088 7.96546,-18.75557 10.52799,-24.7882 l 4.65915,-10.96843 6.86836,-1.66442 c 3.77759,-0.91543 11.27367,-2.73695 16.65794,-4.04783 35.4121,-8.621551 55.53725,-13.474756 55.60322,-13.408784 0.042,0.04198 -4.17672,1.906185 -9.3749,4.14267 -37.40047,16.091314 -48.66495,21.003794 -49.05039,21.391064 -0.42668,0.42869 -6.13846,8.32256 -29.80298,41.18873 -6.18195,8.58573 -11.40132,15.78476 -11.59858,15.99784 -0.30253,0.3268 -0.35866,-0.74016 -0.35866,-6.81771 z"
       id="path94" /><path
       style="fill:#004503;fill-opacity:1"
       d="M 87.899749,149.11154 C 78.788983,136.47868 69.395563,123.4638 67.025483,120.18958 l -4.309236,-5.95312 -2.012192,-0.85752 C 48.329252,108.10527 4.3670348,89.098093 4.4205207,89.044607 c 0.038746,-0.03875 14.0515853,3.323075 31.1396443,7.470713 17.088058,4.14764 34.860233,8.45947 39.493721,9.58185 7.776553,1.88373 8.45071,2.09207 8.764989,2.70874 0.187256,0.36743 4.940896,11.51678 10.563646,24.77633 l 10.223179,24.10829 -0.0705,7.19492 -0.0705,7.19492 z"
       id="path93" /><path
       style="fill:#004503;fill-opacity:1"
       d="m 107.07555,193.47917 c 0.0907,-1.67349 0.16896,-4.3524 0.17387,-5.95313 l 0.009,-2.91042 9.49386,-12.78682 c 5.22162,-7.03275 9.54898,-12.84195 9.61635,-12.90932 0.0674,-0.0674 5.2869,-1.12839 11.59894,-2.35781 6.31204,-1.22942 11.69658,-2.28802 11.96563,-2.35244 0.26906,-0.0644 0.42233,-0.0503 0.34061,0.0315 -0.0817,0.0817 -4.78726,2.60635 -10.45675,5.61029 l -10.30817,5.46169 -2.75415,3.83065 c -1.51479,2.10685 -6.4764,9.00986 -11.02581,15.34001 -4.54941,6.33016 -8.39464,11.62844 -8.54496,11.77396 -0.1878,0.18181 -0.2217,-0.6873 -0.10835,-2.77812 z"
       id="path92" /><path
       style="fill:#004503;fill-opacity:1"
       d="M 99.548288,191.03545 C 97.42765,188.08663 92.39509,181.09005 88.364822,175.4875 l -7.32776,-10.18646 -10.220085,-5.41073 c -5.621047,-2.97591 -10.095333,-5.45232 -9.942859,-5.50315 0.221728,-0.0739 20.519751,3.80082 22.746608,4.34214 0.379807,0.0923 2.01513,2.07133 4.630208,5.60329 2.223656,3.00331 6.500617,8.77286 9.504358,12.82124 l 5.461348,7.36069 0.19242,5.64497 c 0.10583,3.10474 0.14799,5.77828 0.0937,5.94121 -0.0543,0.16293 -1.83381,-2.11644 -3.954452,-5.06525 z"
       id="path91" /></g></svg>
